PathFileType	4	(X/Y/Z)	/Users/itak/Documents/Research/Walk-IL/dataset/trc/00503_00183.trc
DataRate	CameraRate	NumFrames	NumMarkers	Units	OrigDataRate	OrigDataStartFrame	OrigNumFrames
100.000000	100.000000	4	53	mm	100.000000	265	707
Frame#	Time	RPSI			LPSI			L3			STRN			T10			C7			CLAV			RBAK			LBAK			LSHO			LUPA			LAEL			LAOL			LWTS			LWPS			LFRA			LIFD			LHPS			LHTS			RSHO			RUPA			RAEL			RAOL			RWTS			RWPS			RFRA			RIFD			RHTS			RHPS			RBHD			LFHD			RFHD			LBHD			LHIP			RHIP			RASI			LASI			LKNE			LTHI			LANK			LTIP			LTOE			LMT1			LMT5			LHEE			RKNE			RTHI			RANK			RTIP			RTOE			RMT1			RMT5			RHEE			
		X1	Y1	Z1	X2	Y2	Z2	X3	Y3	Z3	X4	Y4	Z4	X5	Y5	Z5	X6	Y6	Z6	X7	Y7	Z7	X8	Y8	Z8	X9	Y9	Z9	X10	Y10	Z10	X11	Y11	Z11	X12	Y12	Z12	X13	Y13	Z13	X14	Y14	Z14	X15	Y15	Z15	X16	Y16	Z16	X17	Y17	Z17	X18	Y18	Z18	X19	Y19	Z19	X20	Y20	Z20	X21	Y21	Z21	X22	Y22	Z22	X23	Y23	Z23	X24	Y24	Z24	X25	Y25	Z25	X26	Y26	Z26	X27	Y27	Z27	X28	Y28	Z28	X29	Y29	Z29	X30	Y30	Z30	X31	Y31	Z31	X32	Y32	Z32	X33	Y33	Z33	X34	Y34	Z34	X35	Y35	Z35	X36	Y36	Z36	X37	Y37	Z37	X38	Y38	Z38	X39	Y39	Z39	X40	Y40	Z40	X41	Y41	Z41	X42	Y42	Z42	X43	Y43	Z43	X44	Y44	Z44	X45	Y45	Z45	X46	Y46	Z46	X47	Y47	Z47	X48	Y48	Z48	X49	Y49	Z49	X50	Y50	Z50	X51	Y51	Z51	X52	Y52	Z52	X53	Y53	Z53	

266	2.65	-836.6917724609375	964.953369140625	-216.7167663574219	-788.7146606445312	956.1138916015625	-330.6806945800781	-810.5484008789062	1033.541259765625	-277.5908203125	-606.871337890625	1190.73876953125	-202.1327819824219	-823.6753540039062	1137.993408203125	-276.0299072265625	-783.3968505859375	1367.644653320312	-255.990234375	-638.4448852539062	1286.935424804688	-210.8753509521484	-857.8485107421875	1245.2333984375	-192.0000305175781	-780.0286865234375	1315.90576171875	-348.7771301269531	-665.0751953125	1362.01513671875	-385.6112060546875	-652.0587768554688	1237.351684570312	-449.2413330078125	-623.4044189453125	1028.23828125	-467.7978210449219	-718.561767578125	1016.224243164062	-442.8463439941406	-552.0214233398438	849.2678833007812	-390.3414306640625	-594.2041015625	809.0503540039062	-464.5202026367188	-602.1875610351562	948.6273193359375	-461.90673828125	-542.3945922851562	692.1504516601562	-377.395751953125	-571.3036499023438	756.62939453125	-446.2980651855469	-528.58447265625	772.2052612304688	-399.8092346191406	-777.0732421875	1357.642700195312	-97.45291137695312	-810.95166015625	1289.623779296875	-49.12504959106445	-813.3053588867188	1021.56787109375	-3.793166399002075	-851.0243530273438	1002.931274414062	-55.42628860473633	-691.4668579101562	829.1848754882812	3.352454900741577	-777.1728515625	800.0580444335938	19.01572418212891	-807.9400634765625	967.3777465820312	4.990259647369385	-677.3567504882812	669.83154296875	6.709412097930908	-679.40673828125	736.0428466796875	32.19241714477539	-749.984375	727.9698486328125	28.32675743103027	-785.899658203125	1510.54150390625	-165.9349822998047	-625.4534912109375	1593.878173828125	-252.0156860351562	-673.2302856445312	1583.885131835938	-134.3635559082031	-738.8304443359375	1516.96337890625	-317.6676330566406	-641.0774536132812	876.703369140625	-405.5574340820312	-786.77001953125	871.330078125	-57.36005783081055	-668.6920166015625	916.5308837890625	-81.40340423583984	-582.99169921875	917.5894775390625	-306.6529541015625	-581.0576171875	456.98876953125	-341.6672058105469	-586.1932983398438	616.1797485351562	-362.7421569824219	-883.3635864257812	194.0838775634766	-498.9822998046875	-667.991455078125	354.4259033203125	-395.2666320800781	-802.4622192382812	42.07533645629883	-397.0628967285156	-858.2577514648438	96.12238311767578	-386.8963317871094	-823.3497924804688	104.0003356933594	-485.7916564941406	-932.8885498046875	227.0954437255859	-451.5867309570312	-718.4701538085938	482.1763000488281	-88.85100555419922	-752.4984130859375	741.5300903320312	-45.90610122680664	-749.8546142578125	47.90298461914062	-157.9984283447266	-697.8917236328125	335.9539489746094	-106.4552612304688	-549.1845092773438	44.03755950927734	-114.8806304931641	-593.4346313476562	50.23018646240234	-176.3799591064453	-652.9258422851562	45.59461975097656	-99.19563293457031	-777.3518676757812	38.27937698364258	-222.6416625976562	
267	2.66	-833.7420043945312	964.8158569335938	-213.5139617919922	-785.9716796875	956.0861206054688	-327.6608581542969	-807.8317260742188	1033.885864257812	-274.3882751464844	-603.5170288085938	1191.025512695312	-199.3489074707031	-820.6210327148438	1138.500732421875	-272.52685546875	-779.9440307617188	1368.020141601562	-252.5555114746094	-634.9771118164062	1287.228393554688	-208.017578125	-854.29736328125	1245.719116210938	-188.2550048828125	-776.9970092773438	1316.253662109375	-345.4014892578125	-662.1331176757812	1362.2578125	-382.6383972167969	-649.4381103515625	1237.607299804688	-446.3373107910156	-620.602294921875	1028.524169921875	-464.9658203125	-715.706787109375	1016.387268066406	-439.8359985351562	-548.0222778320312	850.5421752929688	-387.2160034179688	-590.0167846679688	809.833740234375	-461.2413635253906	-599.0469970703125	949.2847290039062	-458.9246826171875	-536.7847290039062	693.583984375	-374.1064147949219	-566.4332275390625	757.615478515625	-442.9634094238281	-523.7756958007812	773.75048828125	-396.6456909179688	-773.0045166015625	1358.133422851562	-94.072021484375	-806.6898803710938	1290.171142578125	-45.51682662963867	-808.7985229492188	1022.195983886719	0.1952833980321884	-846.890380859375	1003.515869140625	-51.20886993408203	-687.3738403320312	829.5028076171875	6.611722946166992	-773.1071166992188	800.6565551757812	23.01712989807129	-803.415771484375	967.99853515625	8.993638038635254	-673.8591918945312	670.0989990234375	10.15608978271484	-675.4144287109375	736.36279296875	35.47168350219727	-746.1343383789062	728.4810791015625	32.32186889648438	-781.9435424804688	1510.823486328125	-162.5536651611328	-621.7755737304688	1594.165893554688	-249.1365356445312	-669.1755981445312	1584.148193359375	-131.3442230224609	-735.44384765625	1517.2626953125	-314.441650390625	-638.010986328125	877.273681640625	-402.5769348144531	-783.5339965820312	871.1057739257812	-54.38243103027344	-665.3400268554688	916.6716918945312	-78.19600677490234	-580.109130859375	918.4444580078125	-303.6473388671875	-571.270263671875	458.8604736328125	-336.1184387207031	-579.2272338867188	617.6609497070312	-358.6412353515625	-873.0829467773438	195.7289581298828	-492.666015625	-658.2106323242188	356.6253967285156	-389.3796691894531	-787.1071166992188	44.19307327270508	-393.9940185546875	-844.1947631835938	96.77521514892578	-382.2332153320312	-810.7074584960938	107.3041229248047	-481.3210144042969	-923.0582885742188	226.8606567382812	-444.3845520019531	-717.1381225585938	481.76904296875	-87.12639617919922	-749.2637329101562	741.1976318359375	-43.58614730834961	-749.7935180664062	47.9339714050293	-157.9974365234375	-697.2391357421875	335.6092529296875	-105.5251007080078	-549.1239013671875	43.88972473144531	-114.9403991699219	-593.4237060546875	50.10080718994141	-176.3394165039062	-652.8903198242188	45.49174118041992	-99.10704040527344	-777.2677612304688	38.38784408569336	-222.6898040771484	
268	2.67	-830.7695922851562	964.7122802734375	-210.4138031005859	-783.155029296875	956.1259765625	-324.7423706054688	-805.1083984375	1034.253784179688	-271.2579650878906	-600.1782836914062	1191.37255859375	-196.5624694824219	-817.5822143554688	1139.020751953125	-269.1146240234375	-776.5386352539062	1368.41796875	-249.1953582763672	-631.55908203125	1287.573120117188	-205.1809997558594	-850.7786254882812	1246.216064453125	-184.5884704589844	-773.9791259765625	1316.620239257812	-342.091064453125	-659.2329711914062	1362.526611328125	-379.7155151367188	-646.8366088867188	1237.896484375	-443.4849243164062	-617.8377685546875	1028.85546875	-462.2300415039062	-712.8681030273438	1016.592407226562	-436.878173828125	-544.0816040039062	851.78125	-384.2537841796875	-585.9442749023438	810.6286010742188	-458.1004333496094	-595.9630737304688	949.9572143554688	-456.0641174316406	-531.3646240234375	695.0072631835938	-370.9784240722656	-561.7233276367188	758.5899047851562	-439.7857360839844	-519.1121826171875	775.2533569335938	-393.6578674316406	-769.0176391601562	1358.680908203125	-90.76998138427734	-802.5226440429688	1290.7744140625	-41.99578094482422	-804.3411865234375	1022.872985839844	4.058691501617432	-842.7719116210938	1004.154174804688	-47.1338005065918	-683.3236083984375	829.88671875	9.787922859191895	-769.080322265625	801.2984008789062	26.89200210571289	-798.942138671875	968.67236328125	12.86935234069824	-670.367919921875	670.42431640625	13.49464416503906	-671.4609985351562	736.7388305664062	38.66539001464844	-742.3074340820312	729.036865234375	36.18480682373047	-777.9869995117188	1511.2158203125	-159.244384765625	-618.0045166015625	1594.419067382812	-246.3204650878906	-665.054931640625	1584.419921875	-128.3923187255859	-732.0398559570312	1517.640625	-311.2943420410156	-634.9047241210938	877.9415893554688	-399.6725158691406	-780.30859375	870.884521484375	-51.56428909301758	-662.0343017578125	916.8147583007812	-75.02866363525391	-577.2025146484375	919.3543090820312	-300.6486206054688	-561.779296875	460.94189453125	-330.69091796875	-572.2958984375	619.2883911132812	-354.6039733886719	-862.3095092773438	196.4368591308594	-486.195068359375	-648.5502319335938	358.7654113769531	-383.6085815429688	-770.910400390625	46.24644088745117	-390.3863830566406	-829.4562377929688	96.97830963134766	-377.2246704101562	-797.365478515625	109.9632263183594	-476.4754333496094	-912.8279418945312	225.6365203857422	-437.1530151367188	-715.931884765625	481.3791198730469	-85.42974090576172	-746.1360473632812	740.8908081054688	-41.26717376708984	-749.7421875	47.9613037109375	-157.9942321777344	-696.68505859375	335.2856750488281	-104.6250076293945	-549.0762939453125	43.77569961547852	-114.9758453369141	-593.43115234375	49.99794769287109	-176.2854766845703	-652.864013671875	45.40310287475586	-99.00893402099609	-777.1826782226562	38.49510955810547	-222.7510375976562	
269	2.68	-827.7636108398438	964.6510009765625	-207.4176788330078	-780.2686767578125	956.2280883789062	-321.9181213378906	-802.3616943359375	1034.637573242188	-268.1928405761719	-596.8508911132812	1191.76953125	-193.7728118896484	-814.5494995117188	1139.544311523438	-265.7820739746094	-773.1776733398438	1368.832153320312	-245.9040222167969	-628.1856689453125	1287.960815429688	-202.3595886230469	-847.2877807617188	1246.714965820312	-180.9940643310547	-770.9729614257812	1316.997924804688	-338.8374633789062	-656.373046875	1362.816528320312	-376.8362426757812	-644.2510986328125	1238.216674804688	-440.6752014160156	-615.103515625	1029.231689453125	-459.57421875	-710.0382690429688	1016.836853027344	-433.9649047851562	-540.2007446289062	852.9690551757812	-381.4490661621094	-581.9890747070312	811.42236328125	-455.0958862304688	-592.9277954101562	950.637451171875	-453.3158264160156	-526.1416625976562	696.3950805664062	-367.9963989257812	-557.1893920898438	759.5420532226562	-436.7600708007812	-514.6066284179688	776.69189453125	-390.8412780761719	-765.1119384765625	1359.274658203125	-87.53970336914062	-798.4498291015625	1291.4228515625	-38.55585098266602	-799.9461059570312	1023.586181640625	7.79423189163208	-838.6846313476562	1004.835815429688	-43.19863891601562	-679.319580078125	830.3340454101562	12.88762092590332	-765.08837890625	801.971923828125	30.63461875915527	-794.536376953125	969.38623046875	16.61608505249023	-666.8627319335938	670.8075561523438	16.72589683532715	-667.5343627929688	737.1717529296875	41.77607727050781	-738.4845581054688	729.6317749023438	39.89870452880859	-774.033203125	1511.71484375	-156.0039215087891	-614.1470947265625	1594.629638671875	-243.5711212158203	-660.8727416992188	1584.697509765625	-125.5084762573242	-728.6102905273438	1518.0849609375	-308.2199096679688	-631.77587890625	878.693603515625	-396.8436279296875	-777.084716796875	870.6699829101562	-48.90200805664062	-658.8021850585938	916.9425048828125	-71.91996765136719	-574.27197265625	920.2951049804688	-297.6668090820312	-552.5672607421875	463.1925964355469	-325.4016723632812	-565.4322509765625	621.0365600585938	-350.6427001953125	-851.06103515625	196.2147521972656	-479.6226806640625	-638.9646606445312	360.8135375976562	-377.9724426269531	-754.075927734375	48.16586685180664	-386.1801452636719	-814.1795043945312	96.77982330322266	-371.8436584472656	-783.4487915039062	111.9251327514648	-471.2434997558594	-902.1633911132812	223.5046539306641	-429.9483642578125	-714.842529296875	481.0093078613281	-83.76661682128906	-743.13720703125	740.6118774414062	-38.94612503051758	-749.6998901367188	47.98458480834961	-157.9879608154297	-696.2164916992188	334.9849243164062	-103.7494888305664	-549.0407104492188	43.68636703491211	-114.9871597290039	-593.451904296875	49.9189453125	-176.2147827148438	-652.8455810546875	45.32280731201172	-98.90290069580078	-777.09912109375	38.60450744628906	-222.8194122314453	
